<?xml version="1.0" encoding="utf-8"?>
<svg viewBox="54.001 20.2 739.688 960" width="739.688" height="960" xmlns="http://www.w3.org/2000/svg" xmlns:bx="https://boxy-svg.com">
  <defs>
    <radialGradient gradientUnits="userSpaceOnUse" cx="424.754" cy="792.406" r="369.844" id="gradient-0" gradientTransform="matrix(1.166603, 0, 0, 2.351747, -70.998039, -1143.986817)">
      <stop offset="0" style="stop-color: rgb(84.706% 84.706% 84.706%)"/>
      <stop offset="1" style="stop-color: rgb(84, 84, 84);"/>
    </radialGradient>
    <linearGradient gradientUnits="userSpaceOnUse" x1="423.845" y1="694.27" x2="423.845" y2="980.2" id="gradient-4">
      <stop offset="0" style="stop-color: rgb(32.549% 32.549% 32.549%)"/>
      <stop offset="1" style="stop-color: rgb(144, 144, 144);"/>
    </linearGradient>
    <linearGradient gradientUnits="userSpaceOnUse" x1="423.422" y1="162.894" x2="423.422" y2="837.258" id="gradient-1" gradientTransform="matrix(1.185474, 0.003824, -0.002227, 0.690347, -75.926086, 319.483659)">
      <stop offset="0" style="stop-color: rgb(238, 238, 238);"/>
      <stop offset="1" style="stop-color: rgb(189, 189, 189);"/>
    </linearGradient>
    <radialGradient gradientUnits="userSpaceOnUse" cx="425.682" cy="502.023" r="129.054" id="gradient-6" gradientTransform="matrix(0.896856, 0, 0, 0.893549, 43.906617, 53.441136)">
      <stop offset="0" style="stop-color: rgb(230, 228, 228);"/>
      <stop offset="1" style="stop-color: rgb(104, 104, 104);"/>
    </radialGradient>
    <style>
    .s0 { fill: url(#g1);stroke: #6c6c6c;stroke-linecap: round;stroke-linejoin: round;stroke-width: 20 } 
    .s1 { fill: #575757 } 
  </style>
  </defs>
  <path d="M 423.845 20.2 L 793.689 260.2 L 793.689 740.2 L 423.845 980.2 L 54.001 740.2 L 54.001 260.2 Z" style="stroke-width: 21px; fill: url('#gradient-0');" transform="matrix(1, 0, 0, 1, 0, 4.547473508864641e-13)" bx:shape="n-gon 423.845 500.2 427.059 480 6 0 1@0a2b7008"/>
  <path d="M 425.009 694.27 L 793.689 741.051 L 423.685 980.2 L 54.001 741.051 L 425.009 694.27 Z" style="fill: url('#gradient-4');" transform="matrix(1, 0, 0, 1, 0, 4.547473508864641e-13)">
    <title>bottom romb</title>
  </path>
  <g transform="matrix(1, 0, 0, 1, 0, 4.547473508864641e-13)">
    <title>eye</title>
    <path d="M 424.165 99.656 L 633.495 499.379 L 424.165 899.102 L 214.835 499.379 Z" style="fill: url('#gradient-1');" bx:shape="n-gon 424.165 499.379 209.33 399.723 4 0 1@c52e2191"/>
    <path d="M 425.682 374.929 L 443.61 456.717 L 509.916 405.588 L 471.077 479.765 L 554.736 483.218 L 477.304 515.076 L 539.17 571.497 L 459.376 546.129 L 470.502 629.116 L 425.682 558.392 L 380.862 629.116 L 391.988 546.129 L 312.194 571.497 L 374.06 515.076 L 296.628 483.218 L 380.287 479.765 L 341.448 405.588 L 407.754 456.717 Z" style="fill: url('#gradient-6');" bx:shape="star 425.682 505.974 131.045 131.045 0.4 9 1@f2b78d11"/>
  </g>
</svg>