<svg version="1.2" xmlns="http://www.w3.org/2000/svg" viewBox="0 0 1000 1000" width="1000" height="1000">
	<title>mdtt-2</title>
	<defs>
		<radialGradient id="g1" cx="0" cy="0" r="1" gradientUnits="userSpaceOnUse" gradientTransform="matrix(0,-907.953,907.953,0,502.745,954.263)">
			<stop offset="0" stop-color="#acacac"/>
			<stop offset="1" stop-color="#e8e8e8"/>
		</radialGradient>
	</defs>
	<style>
		.s0 { fill: url(#g1);stroke: #6c6c6c;stroke-linecap: round;stroke-linejoin: round;stroke-width: 20 } 
		.s1 { fill: #575757 } 
	</style>
	<path id="Layer" class="s0" d="m500 20.2l440 241.6v480l-440 238.4-440-241.6v-480z"/>
	<path id="Shape 3 copy" fill-rule="evenodd" class="s1" d="m166.7 249.3c10.3-9.6 26.9-9.6 37.1 0l68.9 65.5v-39.5c0-13.8 11.7-24.9 26.2-24.9 14.5 0 26.2 11.1 26.2 24.9v99.8c0 13.8-11.7 24.9-26.2 24.9h-104.9c-14.5 0-26.2-11.1-26.2-24.9 0-13.8 11.7-25 26.2-25h41.6l-68.9-65.4c-10.2-9.8-10.2-25.6 0-35.4zm129.5 237.9c27.4-52.3 97.4-137.1 203.7-137.1 106.3 0 176.4 84.8 203.8 137.1 4.2 7.9 4.2 17.2 0 25.2-27.4 52.3-97.5 137.1-203.8 137.1-106.3 0-176.3-84.8-203.7-137.1-4.2-7.9-4.2-17.2 0-25.2zm203.7 79.1c18.6 0 36.4-7 49.5-19.5 13.1-12.4 20.5-29.4 20.5-47 0-17.6-7.4-34.6-20.5-47-13.1-12.5-30.9-19.5-49.5-19.5-18.5 0-36.3 7-49.4 19.5-13.1 12.4-20.5 29.4-20.5 47 0 17.6 7.4 34.6 20.5 47 13.1 12.5 30.9 19.5 49.4 19.5zm296.1-317c10.3-9.7 26.9-9.7 37.1 0 10.1 9.8 10.2 25.6 0 35.3l-68.9 65.4h41.7c14.5 0 26.2 11.2 26.2 25 0 13.8-11.7 24.9-26.2 24.9h-104.9c-14.6 0-26.3-11.1-26.3-24.9v-99.7c0-13.8 11.7-24.9 26.3-24.9 14.5 0 26.2 11.1 26.2 24.9v39.6c0 0 68.8-65.5 68.8-65.6zm-629.3 501c-10.3-9.8-10.3-25.6 0-35.3l68.8-65.4h-41.5c-14.5 0-26.2-11.2-26.2-25 0-13.8 11.7-24.9 26.2-24.9h104.9c14.5 0 26.2 11.1 26.2 24.9v99.8c0 13.8-11.7 24.9-26.2 24.9-14.5 0-26.2-11.1-26.2-24.9v-39.7l-68.9 65.6c-10.2 9.7-26.8 9.7-37.1 0zm629.3 0l-68.8-65.5v39.5c0 13.8-11.7 24.9-26.2 24.9-14.6 0-26.3-11.1-26.3-24.9v-99.8c0-13.8 11.7-24.9 26.3-24.9h104.9c14.5 0 26.2 11.1 26.2 24.9 0 13.8-11.7 25-26.2 25h-41.7l68.9 65.4c10.2 9.8 10.2 25.6 0 35.3-10.3 9.6-26.9 9.7-37.1 0.1z"/>
	<g id="bg">
	</g>
</svg>