<?xml version="1.0" standalone="no"?>
<!DOCTYPE svg PUBLIC "-//W3C//DTD SVG 20010904//EN"
 "http://www.w3.org/TR/2001/REC-SVG-20010904/DTD/svg10.dtd">
<svg version="1.0" xmlns="http://www.w3.org/2000/svg"
 width="700.000000pt" height="700.000000pt" viewBox="0 0 700.000000 700.000000"
 preserveAspectRatio="xMidYMid meet">
<metadata>
Created by potrace 1.14, written by Peter Selinger 2001-2017
</metadata>
<g transform="translate(0.000000,700.000000) scale(0.100000,-0.100000)"
fill="#000000" stroke="none">
<path d="M3410 6889 c-41 -22 -109 -59 -150 -81 -41 -22 -104 -56 -140 -76
-36 -19 -83 -45 -105 -57 -22 -12 -76 -41 -120 -65 -44 -24 -127 -69 -185
-100 -58 -32 -134 -73 -170 -92 -36 -19 -171 -92 -300 -163 -344 -186 -347
-188 -445 -240 -49 -26 -94 -51 -100 -55 -5 -4 -50 -29 -100 -55 -84 -45 -503
-271 -605 -327 -25 -14 -81 -44 -125 -68 -44 -24 -98 -53 -120 -65 -22 -12
-113 -61 -203 -109 -89 -49 -169 -98 -177 -109 -13 -19 -15 -233 -15 -1722 l0
-1702 22 -20 c13 -11 59 -40 103 -63 44 -24 139 -76 210 -115 72 -40 153 -84
180 -99 28 -15 68 -37 90 -50 22 -12 74 -40 115 -63 41 -22 163 -89 270 -148
107 -59 224 -123 260 -143 36 -19 85 -46 110 -60 25 -13 74 -40 110 -60 36
-19 70 -38 75 -42 6 -4 44 -25 85 -47 79 -42 153 -83 233 -127 26 -14 68 -38
95 -52 26 -15 76 -43 112 -62 71 -38 922 -506 1007 -553 29 -16 61 -29 73 -29
11 0 51 16 88 36 37 20 101 55 142 77 41 22 89 47 105 57 17 10 66 37 110 60
169 91 411 221 425 230 8 5 35 20 60 33 25 13 70 38 100 54 30 17 91 49 135
73 44 24 153 83 242 131 89 49 165 89 168 89 3 0 22 11 43 23 20 13 78 45 127
71 50 26 108 58 130 70 51 28 182 99 265 144 36 19 85 46 110 60 25 14 74 40
110 60 36 19 115 62 175 95 61 33 142 76 180 97 72 39 139 75 310 167 55 30
106 62 113 71 15 20 18 3402 2 3431 -7 15 -121 91 -135 91 -2 0 -84 44 -182
99 -98 54 -207 114 -243 133 -36 20 -87 48 -115 63 -139 77 -246 136 -305 167
-83 45 -146 80 -242 134 -43 24 -80 44 -83 44 -3 0 -22 10 -43 23 -20 13 -73
43 -117 66 -44 24 -98 54 -120 66 -22 12 -65 36 -95 52 -30 17 -120 66 -200
110 -80 44 -181 99 -225 123 -44 24 -114 62 -155 85 -77 43 -148 82 -247 136
-32 18 -71 39 -88 49 -16 10 -66 37 -110 60 -146 79 -330 180 -345 190 -24 16
-81 40 -94 40 -6 0 -45 -19 -86 -41z"/>
</g>
</svg>
