<?xml version="1.0" standalone="no"?>
<!DOCTYPE svg PUBLIC "-//W3C//DTD SVG 20010904//EN"
 "http://www.w3.org/TR/2001/REC-SVG-20010904/DTD/svg10.dtd">
<svg version="1.0" xmlns="http://www.w3.org/2000/svg"
 width="1000.000000pt" height="1000.000000pt" viewBox="0 0 1000.000000 1000.000000"
 preserveAspectRatio="xMidYMid meet">
<metadata>
Created by potrace 1.14, written by Peter Selinger 2001-2017
</metadata>
<g transform="translate(0.000000,1000.000000) scale(0.100000,-0.100000)"
fill="#000000" stroke="none">
<path d="M4810 9684 c-96 -62 -188 -123 -205 -135 -16 -11 -104 -69 -195 -127
-91 -59 -208 -135 -260 -168 -88 -57 -684 -443 -830 -539 -36 -23 -105 -68
-155 -100 -49 -32 -160 -104 -245 -160 -212 -138 -516 -335 -652 -422 -62 -40
-120 -77 -128 -83 -25 -17 -128 -84 -497 -324 l-353 -228 0 -2404 0 -2404 128
-83 c298 -194 714 -463 737 -477 13 -8 152 -97 307 -198 156 -101 366 -237
468 -303 102 -66 228 -148 280 -182 52 -33 149 -96 215 -139 66 -43 125 -82
130 -86 6 -5 15 -11 21 -13 6 -2 155 -98 332 -214 178 -116 330 -214 339 -220
9 -5 76 -48 148 -95 71 -47 162 -105 200 -129 39 -25 123 -80 188 -123 65 -43
121 -78 123 -78 3 0 21 -12 40 -26 18 -14 40 -24 47 -21 7 3 69 41 137 85 69
45 292 189 495 321 204 132 413 267 465 301 96 62 324 209 817 528 148 95 376
243 508 329 132 85 278 180 325 210 47 30 175 112 285 184 110 71 243 157 295
191 52 34 128 83 168 110 41 26 75 48 77 48 8 0 111 73 116 83 8 15 8 4793 0
4805 -3 5 -123 85 -266 177 -143 93 -318 206 -388 252 -70 45 -132 83 -137 83
-6 0 -10 4 -10 8 0 4 -15 16 -32 27 -18 10 -172 109 -343 220 -170 111 -350
228 -400 260 -103 67 -323 209 -506 328 -69 45 -163 106 -210 136 -46 30 -147
96 -224 146 -77 50 -188 122 -248 160 -59 39 -162 106 -230 150 -68 44 -154
100 -193 124 -96 62 -351 228 -399 261 -22 14 -56 36 -75 47 l-35 20 -175
-113z"/>
</g>
</svg>
